999
dxflib 3.3.4.0
  0
SECTION
  2
HEADER
  9
$ACADVER
  1
AC1015
  9
$HANDSEED
  5
FFFF
  9
$DIMADEC
 70
0
  9
$DIMASZ
 40
2.5
  9
$DIMAUNIT
 70
0
  9
$DIMAZIN
 70
2
  9
$DIMDEC
 70
4
  9
$DIMEXE
 40
1.25
  9
$DIMEXO
 40
0.625
  9
$DIMGAP
 40
0.625
  9
$DIMLUNIT
 70
2
  9
$DIMTSZ
 40
0.0
  9
$DIMTXT
 40
2.5
  9
$DIMZIN
 70
8
  9
$DWGCODEPAGE
  3
ANSI_1252
  9
$INSUNITS
 70
4
  9
$LTSCALE
 40
1.0
  0
ENDSEC
  0
SECTION
  2
TABLES
  0
TABLE
  2
VPORT
  5
8
100
AcDbSymbolTable
 70
1
  0
VPORT
  5
30
100
AcDbSymbolTableRecord
100
AcDbViewportTableRecord
  2
*Active
 70
0
 10
0.0
 20
0.0
 11
1.0
 21
1.0
 12
286.30555555555549
 22
148.5
 13
0.0
 23
0.0
 14
10.0
 24
10.0
 15
10.0
 25
10.0
 16
0.0
 26
0.0
 36
1.0
 17
0.0
 27
0.0
 37
0.0
 40
297.0
 41
1.92798353909465
 42
50.0
 43
0.0
 44
0.0
 50
0.0
 51
0.0
 71
0
 72
100
 73
1
 74
3
 75
1
 76
1
 77
0
 78
0
281
0
 65
1
110
0.0
120
0.0
130
0.0
111
1.0
121
0.0
131
0.0
112
0.0
122
1.0
132
0.0
 79
0
146
0.0
  0
ENDTAB
  0
TABLE
  2
LTYPE
  5
5
100
AcDbSymbolTable
 70
21
  0
LTYPE
  5
16
100
AcDbSymbolTableRecord
100
AcDbLinetypeTableRecord
  2
CONTINUOUS
 70
0
  3
Solid line
 72
65
 73
0
 40
0.0
  0
LTYPE
  5
31
100
AcDbSymbolTableRecord
100
AcDbLinetypeTableRecord
  2
CENTER2
 70
0
  3
Center (.5x) ___ _ ___ _ ___ _ ___ _ ___ _ ___
 72
65
 73
4
 40
28.574999999999999
 49
19.050000000000001
 74
0
 49
-3.1749999999999998
 74
0
 49
3.1749999999999998
 74
0
 49
-3.1749999999999998
 74
0
  0
LTYPE
  5
32
100
AcDbSymbolTableRecord
100
AcDbLinetypeTableRecord
  2
DIVIDEX2
 70
0
  3
Divide (2x) ________  .  .  ________  .  .  _
 72
65
 73
6
 40
63.5
 49
25.399999999999999
 74
0
 49
-12.699999999999999
 74
0
 49
0.0
 74
0
 49
-12.699999999999999
 74
0
 49
0.0
 74
0
 49
-12.699999999999999
 74
0
  0
LTYPE
  5
33
100
AcDbSymbolTableRecord
100
AcDbLinetypeTableRecord
  2
DOT2
 70
0
  3
Dot (.5x) .....................................
 72
65
 73
2
 40
3.1749999999999998
 49
0.0
 74
0
 49
-3.1749999999999998
 74
0
  0
LTYPE
  5
34
100
AcDbSymbolTableRecord
100
AcDbLinetypeTableRecord
  2
DASHDOT2
 70
0
  3
Dash dot (.5x) _._._._._._._._._._._._._._._.
 72
65
 73
4
 40
12.699999999999999
 49
6.3499999999999996
 74
0
 49
-3.1749999999999998
 74
0
 49
0.0
 74
0
 49
-3.1749999999999998
 74
0
  0
LTYPE
  5
35
100
AcDbSymbolTableRecord
100
AcDbLinetypeTableRecord
  2
DIVIDE
 70
0
  3
Divide ____ . . ____ . . ____ . . ____ . . ____
 72
65
 73
6
 40
31.75
 49
12.699999999999999
 74
0
 49
-6.3499999999999996
 74
0
 49
0.0
 74
0
 49
-6.3499999999999996
 74
0
 49
0.0
 74
0
 49
-6.3499999999999996
 74
0
  0
LTYPE
  5
36
100
AcDbSymbolTableRecord
100
AcDbLinetypeTableRecord
  2
DASHDOT
 70
0
  3
Dash dot __ . __ . __ . __ . __ . __ . __ . __
 72
65
 73
4
 40
25.399999999999999
 49
12.699999999999999
 74
0
 49
-6.3499999999999996
 74
0
 49
0.0
 74
0
 49
-6.3499999999999996
 74
0
  0
LTYPE
  5
37
100
AcDbSymbolTableRecord
100
AcDbLinetypeTableRecord
  2
BORDER
 70
0
  3
Border __ __ . __ __ . __ __ . __ __ . __ __ .
 72
65
 73
6
 40
44.450000000000003
 49
12.699999999999999
 74
0
 49
-6.3499999999999996
 74
0
 49
12.699999999999999
 74
0
 49
-6.3499999999999996
 74
0
 49
0.0
 74
0
 49
-6.3499999999999996
 74
0
  0
LTYPE
  5
38
100
AcDbSymbolTableRecord
100
AcDbLinetypeTableRecord
  2
DASHDOTX2
 70
0
  3
Dash dot (2x) ____  .  ____  .  ____  .  ___
 72
65
 73
4
 40
50.799999999999997
 49
25.399999999999999
 74
0
 49
-12.699999999999999
 74
0
 49
0.0
 74
0
 49
-12.699999999999999
 74
0
  0
LTYPE
  5
39
100
AcDbSymbolTableRecord
100
AcDbLinetypeTableRecord
  2
CENTERX2
 70
0
  3
Center (2x) ________  __  ________  __  _____
 72
65
 73
4
 40
101.59999999999999
 49
63.5
 74
0
 49
-12.699999999999999
 74
0
 49
12.699999999999999
 74
0
 49
-12.699999999999999
 74
0
  0
LTYPE
  5
3A
100
AcDbSymbolTableRecord
100
AcDbLinetypeTableRecord
  2
BORDER2
 70
0
  3
Border (.5x) __.__.__.__.__.__.__.__.__.__.__.
 72
65
 73
6
 40
22.225000000000001
 49
6.3499999999999996
 74
0
 49
-3.1749999999999998
 74
0
 49
6.3499999999999996
 74
0
 49
-3.1749999999999998
 74
0
 49
0.0
 74
0
 49
-3.1749999999999998
 74
0
  0
LTYPE
  5
3B
100
AcDbSymbolTableRecord
100
AcDbLinetypeTableRecord
  2
BORDERX2
 70
0
  3
Border (2x) ____  ____  .  ____  ____  .  ___
 72
65
 73
6
 40
88.900000000000006
 49
25.399999999999999
 74
0
 49
-12.699999999999999
 74
0
 49
25.399999999999999
 74
0
 49
-12.699999999999999
 74
0
 49
0.0
 74
0
 49
-12.699999999999999
 74
0
  0
LTYPE
  5
14
100
AcDbSymbolTableRecord
100
AcDbLinetypeTableRecord
  2
BYBLOCK
 70
0
  3

 72
65
 73
0
 40
0.0
  0
LTYPE
  5
15
100
AcDbSymbolTableRecord
100
AcDbLinetypeTableRecord
  2
BYLAYER
 70
0
  3

 72
65
 73
0
 40
0.0
  0
LTYPE
  5
3C
100
AcDbSymbolTableRecord
100
AcDbLinetypeTableRecord
  2
DASHED2
 70
0
  3
Dashed (.5x) _ _ _ _ _ _ _ _ _ _ _ _ _ _ _ _ _
 72
65
 73
2
 40
9.5250000000000004
 49
6.3499999999999996
 74
0
 49
-3.1749999999999998
 74
0
  0
LTYPE
  5
3D
100
AcDbSymbolTableRecord
100
AcDbLinetypeTableRecord
  2
CENTER
 70
0
  3
Center ____ _ ____ _ ____ _ ____ _ ____ _ ____
 72
65
 73
4
 40
50.799999999999997
 49
31.75
 74
0
 49
-6.3499999999999996
 74
0
 49
6.3499999999999996
 74
0
 49
-6.3499999999999996
 74
0
  0
LTYPE
  5
3E
100
AcDbSymbolTableRecord
100
AcDbLinetypeTableRecord
  2
DIVIDE2
 70
0
  3
Divide (.5x) __..__..__..__..__..__..__..__.._
 72
65
 73
6
 40
15.875
 49
6.3499999999999996
 74
0
 49
-3.1749999999999998
 74
0
 49
0.0
 74
0
 49
-3.1749999999999998
 74
0
 49
0.0
 74
0
 49
-3.1749999999999998
 74
0
  0
LTYPE
  5
3F
100
AcDbSymbolTableRecord
100
AcDbLinetypeTableRecord
  2
DASHED
 70
0
  3
Dashed __ __ __ __ __ __ __ __ __ __ __ __ __ _
 72
65
 73
2
 40
19.050000000000001
 49
12.699999999999999
 74
0
 49
-6.3499999999999996
 74
0
  0
LTYPE
  5
40
100
AcDbSymbolTableRecord
100
AcDbLinetypeTableRecord
  2
DOTX2
 70
0
  3
Dot (2x) .  .  .  .  .  .  .  .  .  .  .  .  .
 72
65
 73
2
 40
12.699999999999999
 49
0.0
 74
0
 49
-12.699999999999999
 74
0
  0
LTYPE
  5
41
100
AcDbSymbolTableRecord
100
AcDbLinetypeTableRecord
  2
DASHEDX2
 70
0
  3
Dashed (2x) ____  ____  ____  ____  ____  ___
 72
65
 73
2
 40
38.100000000000001
 49
25.399999999999999
 74
0
 49
-12.699999999999999
 74
0
  0
LTYPE
  5
42
100
AcDbSymbolTableRecord
100
AcDbLinetypeTableRecord
  2
DOT
 70
0
  3
Dot . . . . . . . . . . . . . . . . . . . . . .
 72
65
 73
2
 40
6.3499999999999996
 49
0.0
 74
0
 49
-6.3499999999999996
 74
0
  0
ENDTAB
  0
TABLE
  2
LAYER
  5
2
100
AcDbSymbolTable
 70
1
  0
LAYER
  5
10
100
AcDbSymbolTableRecord
100
AcDbLayerTableRecord
  2
0
 70
0
 62
7
420
16777215
  6
CONTINUOUS
370
25
390
F
  0
ENDTAB
  0
TABLE
  2
STYLE
  5
3
100
AcDbSymbolTable
 70
1
  0
STYLE
  5
43
100
AcDbSymbolTableRecord
100
AcDbTextStyleTableRecord
  2
Standard
 70
0
 40
0.0
 41
1.0
 50
0.0
 71
0
 42
2.5
  3

  4

1001
ACAD
1000
txt
1071
0
  0
ENDTAB
  0
TABLE
  2
VIEW
  5
6
100
AcDbSymbolTable
 70
0
  0
ENDTAB
  0
TABLE
  2
UCS
  5
7
100
AcDbSymbolTable
 70
0
  0
ENDTAB
  0
TABLE
  2
APPID
  5
9
100
AcDbSymbolTable
 70
1
  0
APPID
  5
12
100
AcDbSymbolTableRecord
100
AcDbRegAppTableRecord
  2
ACAD
 70
0
  0
APPID
  5
44
100
AcDbSymbolTableRecord
100
AcDbRegAppTableRecord
  2
QCAD
 70
0
  0
ENDTAB
  0
TABLE
  2
DIMSTYLE
  5
A
100
AcDbSymbolTable
 70
1
100
AcDbDimStyleTable
 71
0
  0
DIMSTYLE
105
27
100
AcDbSymbolTableRecord
100
AcDbDimStyleTableRecord
  2
Standard
 41
2.5
 42
0.625
 43
3.75
 44
1.25
 70
0
 73
0
 74
0
 77
1
 78
8
140
2.5
141
2.5
143
0.03937007874016
147
0.625
171
3
172
1
271
2
272
2
274
3
278
44
283
0
284
8
340
43
  0
ENDTAB
  0
TABLE
  2
BLOCK_RECORD
  5
1
100
AcDbSymbolTable
 70
1
  0
BLOCK_RECORD
  5
1F
100
AcDbSymbolTableRecord
100
AcDbBlockTableRecord
  2
*Model_Space
340
22
  0
BLOCK_RECORD
  5
1B
100
AcDbSymbolTableRecord
100
AcDbBlockTableRecord
  2
*Paper_Space
340
1E
  0
BLOCK_RECORD
  5
23
100
AcDbSymbolTableRecord
100
AcDbBlockTableRecord
  2
*Paper_Space0
340
26
  0
ENDTAB
  0
ENDSEC
  0
SECTION
  2
BLOCKS
  0
BLOCK
  5
20
100
AcDbEntity
  8
0
100
AcDbBlockBegin
  2
*Model_Space
 70
0
 10
0.0
 20
0.0
 30
0.0
  3
*Model_Space
  1

  0
ENDBLK
  5
21
100
AcDbEntity
  8
0
100
AcDbBlockEnd
  0
BLOCK
  5
1C
100
AcDbEntity
 67
1
  8
0
100
AcDbBlockBegin
  2
*Paper_Space
 70
0
 10
0.0
 20
0.0
 30
0.0
  3
*Paper_Space
  1

  0
ENDBLK
  5
1D
100
AcDbEntity
 67
1
  8
0
100
AcDbBlockEnd
  0
BLOCK
  5
24
100
AcDbEntity
  8
0
100
AcDbBlockBegin
  2
*Paper_Space0
 70
0
 10
0.0
 20
0.0
 30
0.0
  3
*Paper_Space0
  1

  0
ENDBLK
  5
25
100
AcDbEntity
  8
0
100
AcDbBlockEnd
  0
ENDSEC
  0
SECTION
  2
ENTITIES
  0
CIRCLE
  5
45
100
AcDbEntity
100
AcDbCircle
  8
0
 62
256
370
-1
  6
BYLAYER
 10
-0.0000000000000213
 20
-0.0000000000000053
 30
0.0
 40
130.0
  0
LINE
  5
46
100
AcDbEntity
100
AcDbLine
  8
0
 62
256
370
-1
  6
BYLAYER
 10
-95.61389976463137
 20
80.516968222847439
 30
0.0
 11
-95.61389976463137
 21
80.516968222847424
 31
0.0
  0
ARC
  5
47
100
AcDbEntity
  8
0
 62
256
370
-1
  6
BYLAYER
100
AcDbCircle
 10
-0.0000000000000213
 20
-0.0000000000000053
 30
0.0
 40
130.0
100
AcDbArc
 50
222.79577249602792
 51
47.204227503972092
  0
ARC
  5
48
100
AcDbEntity
  8
0
 62
256
370
-1
  6
BYLAYER
100
AcDbCircle
 10
-0.0000000000000213
 20
-0.0000000000000053
 30
0.0
 40
25.0
100
AcDbArc
 50
11.536959032815499
 51
33.463040967184334
  0
ARC
  5
49
100
AcDbEntity
  8
0
 62
256
370
-1
  6
BYLAYER
100
AcDbCircle
 10
-0.0000000000000213
 20
-0.0000000000000053
 30
0.0
 40
25.0
100
AcDbArc
 50
11.536959032815499
 51
33.463040967184334
  0
ARC
  5
4A
100
AcDbEntity
  8
0
 62
256
370
-1
  6
BYLAYER
100
AcDbCircle
 10
-0.0000000000000213
 20
-0.0000000000000053
 30
0.0
 40
25.0
100
AcDbArc
 50
326.53695903281533
 51
348.4630409671845
  0
ARC
  5
4B
100
AcDbEntity
  8
0
 62
256
370
-1
  6
BYLAYER
100
AcDbCircle
 10
-0.0000000000000213
 20
-0.0000000000000053
 30
0.0
 40
25.0
100
AcDbArc
 50
326.53695903281533
 51
348.4630409671845
  0
ARC
  5
4C
100
AcDbEntity
  8
0
 62
256
370
-1
  6
BYLAYER
100
AcDbCircle
 10
-0.0000000000000213
 20
-0.0000000000000053
 30
0.0
 40
25.0
100
AcDbArc
 50
281.5369590328155
 51
303.46304096718427
  0
ARC
  5
4D
100
AcDbEntity
  8
0
 62
256
370
-1
  6
BYLAYER
100
AcDbCircle
 10
-0.0000000000000213
 20
-0.0000000000000053
 30
0.0
 40
25.0
100
AcDbArc
 50
281.5369590328155
 51
303.46304096718427
  0
ARC
  5
4E
100
AcDbEntity
  8
0
 62
256
370
-1
  6
BYLAYER
100
AcDbCircle
 10
-0.0000000000000213
 20
-0.0000000000000053
 30
0.0
 40
25.0
100
AcDbArc
 50
236.53695903281545
 51
258.4630409671845
  0
ARC
  5
4F
100
AcDbEntity
  8
0
 62
256
370
-1
  6
BYLAYER
100
AcDbCircle
 10
-0.0000000000000213
 20
-0.0000000000000053
 30
0.0
 40
25.0
100
AcDbArc
 50
236.53695903281545
 51
258.4630409671845
  0
ARC
  5
50
100
AcDbEntity
  8
0
 62
256
370
-1
  6
BYLAYER
100
AcDbCircle
 10
-0.0000000000000213
 20
-0.0000000000000053
 30
0.0
 40
25.0
100
AcDbArc
 50
56.53695903281578
 51
78.463040967184497
  0
ARC
  5
51
100
AcDbEntity
  8
0
 62
256
370
-1
  6
BYLAYER
100
AcDbCircle
 10
-0.0000000000000213
 20
-0.0000000000000053
 30
0.0
 40
25.0
100
AcDbArc
 50
56.53695903281578
 51
78.463040967184497
  0
ARC
  5
52
100
AcDbEntity
  8
0
 62
256
370
-1
  6
BYLAYER
100
AcDbCircle
 10
-0.0000000000000213
 20
-0.0000000000000053
 30
0.0
 40
25.0
100
AcDbArc
 50
101.5369590328155
 51
123.46304096718468
  0
ARC
  5
53
100
AcDbEntity
  8
0
 62
256
370
-1
  6
BYLAYER
100
AcDbCircle
 10
-0.0000000000000213
 20
-0.0000000000000053
 30
0.0
 40
25.0
100
AcDbArc
 50
101.5369590328155
 51
123.46304096718468
  0
ARC
  5
54
100
AcDbEntity
  8
0
 62
256
370
-1
  6
BYLAYER
100
AcDbCircle
 10
-0.0000000000000213
 20
-0.0000000000000053
 30
0.0
 40
25.0
100
AcDbArc
 50
146.53695903281576
 51
168.4630409671845
  0
ARC
  5
55
100
AcDbEntity
  8
0
 62
256
370
-1
  6
BYLAYER
100
AcDbCircle
 10
-0.0000000000000213
 20
-0.0000000000000053
 30
0.0
 40
25.0
100
AcDbArc
 50
191.53695903281547
 51
213.46304096718433
  0
ARC
  5
56
100
AcDbEntity
  8
0
 62
256
370
-1
  6
BYLAYER
100
AcDbCircle
 10
-0.0000000000000213
 20
-0.0000000000000053
 30
0.0
 40
25.0
100
AcDbArc
 50
146.53695903281576
 51
168.4630409671845
  0
ARC
  5
57
100
AcDbEntity
  8
0
 62
256
370
-1
  6
BYLAYER
100
AcDbCircle
 10
-0.0000000000000213
 20
-0.0000000000000053
 30
0.0
 40
25.0
100
AcDbArc
 50
191.53695903281547
 51
213.46304096718433
  0
LINE
  5
58
100
AcDbEntity
100
AcDbLine
  8
0
 62
256
370
-1
  6
BYLAYER
 10
4.9999999999999787
 20
119.89578808281799
 30
0.0
 11
4.9999999999999787
 21
24.49489742783177
 31
0.0
  0
LINE
  5
59
100
AcDbEntity
100
AcDbLine
  8
0
 62
256
370
-1
  6
BYLAYER
 10
-5.0000000000000213
 20
24.49489742783177
 30
0.0
 11
-5.0000000000000213
 21
119.89578808281796
 31
0.0
  0
LINE
  5
5A
100
AcDbEntity
100
AcDbLine
  8
0
 62
256
370
-1
  6
BYLAYER
 10
81.243590883132995
 20
88.314658694998656
 30
0.0
 11
13.78497416975592
 21
20.856041981621555
 31
0.0
  0
ARC
  5
5B
100
AcDbEntity
  8
0
 62
256
370
-1
  6
BYLAYER
100
AcDbCircle
 10
-0.0000000000000213
 20
-0.0000000000000053
 30
0.0
 40
120.0
100
AcDbArc
 50
47.38801546326885
 51
87.611984536731228
  0
LINE
  5
5C
100
AcDbEntity
100
AcDbLine
  8
0
 62
256
370
-1
  6
BYLAYER
 10
20.856041981621708
 20
13.784974169756135
 30
0.0
 11
88.314658694998755
 21
81.243590883132882
 31
0.0
  0
LINE
  5
5D
100
AcDbEntity
100
AcDbLine
  8
0
 62
256
370
-1
  6
BYLAYER
 10
-20.856041981621665
 20
13.784974169756007
 30
0.0
 11
-88.314658694998698
 21
81.243590883133038
 31
0.0
  0
LINE
  5
5E
100
AcDbEntity
100
AcDbLine
  8
0
 62
256
370
-1
  6
BYLAYER
 10
-81.243590883133194
 20
88.314658694998528
 30
0.0
 11
-13.784974169756161
 21
20.856041981621512
 31
0.0
  0
ARC
  5
5F
100
AcDbEntity
  8
0
 62
256
370
-1
  6
BYLAYER
100
AcDbCircle
 10
-0.0000000000000213
 20
-0.0000000000000053
 30
0.0
 40
120.0
100
AcDbArc
 50
92.388015463268786
 51
132.61198453673128
  0
LINE
  5
60
100
AcDbEntity
100
AcDbLine
  8
0
 62
256
370
-1
  6
BYLAYER
 10
-119.89578808281802
 20
-5.0000000000000053
 30
0.0
 11
-24.494897427831795
 21
-5.0000000000000053
 31
0.0
  0
LINE
  5
61
100
AcDbEntity
100
AcDbLine
  8
0
 62
256
370
-1
  6
BYLAYER
 10
-24.494897427831805
 20
4.9999999999999947
 30
0.0
 11
-119.89578808281799
 21
4.9999999999999947
 31
0.0
  0
ARC
  5
62
100
AcDbEntity
  8
0
 62
256
370
-1
  6
BYLAYER
100
AcDbCircle
 10
-0.0000000000000213
 20
-0.0000000000000053
 30
0.0
 40
120.0
100
AcDbArc
 50
137.38801546326883
 51
177.61198453673117
  0
LINE
  5
63
100
AcDbEntity
100
AcDbLine
  8
0
 62
256
370
-1
  6
BYLAYER
 10
119.89578808281796
 20
4.9999999999999947
 30
0.0
 11
24.494897427831766
 21
4.9999999999999947
 31
0.0
  0
ARC
  5
64
100
AcDbEntity
  8
0
 62
256
370
-1
  6
BYLAYER
100
AcDbCircle
 10
-0.0000000000000213
 20
-0.0000000000000053
 30
0.0
 40
120.0
100
AcDbArc
 50
2.3880154632688488
 51
42.611984536731086
  0
LINE
  5
65
100
AcDbEntity
100
AcDbLine
  8
0
 62
256
370
-1
  6
BYLAYER
 10
24.494897427831766
 20
-5.0000000000000053
 30
0.0
 11
119.89578808281799
 21
-5.0000000000000053
 31
0.0
  0
ARC
  5
66
100
AcDbEntity
  8
0
 62
256
370
-1
  6
BYLAYER
100
AcDbCircle
 10
-0.0000000000000213
 20
-0.0000000000000053
 30
0.0
 40
120.0
100
AcDbArc
 50
317.38801546326874
 51
357.61198453673114
  0
LINE
  5
67
100
AcDbEntity
100
AcDbLine
  8
0
 62
256
370
-1
  6
BYLAYER
 10
20.856041981621456
 20
-13.784974169756092
 30
0.0
 11
88.314658694998528
 21
-81.243590883133166
 31
0.0
  0
LINE
  5
68
100
AcDbEntity
100
AcDbLine
  8
0
 62
256
370
-1
  6
BYLAYER
 10
81.243590883132967
 20
-88.314658694998684
 30
0.0
 11
13.78497416975592
 21
-20.856041981621591
 31
0.0
  0
ARC
  5
69
100
AcDbEntity
  8
0
 62
256
370
-1
  6
BYLAYER
100
AcDbCircle
 10
-0.0000000000000213
 20
-0.0000000000000053
 30
0.0
 40
120.0
100
AcDbArc
 50
272.38801546326874
 51
312.61198453673114
  0
LINE
  5
6A
100
AcDbEntity
100
AcDbLine
  8
0
 62
256
370
-1
  6
BYLAYER
 10
-5.0000000000000213
 20
-119.895788082818
 30
0.0
 11
-5.0000000000000213
 21
-24.494897427831749
 31
0.0
  0
LINE
  5
6B
100
AcDbEntity
100
AcDbLine
  8
0
 62
256
370
-1
  6
BYLAYER
 10
4.9999999999999787
 20
-24.494897427831784
 30
0.0
 11
4.9999999999999787
 21
-119.89578808281799
 31
0.0
  0
LINE
  5
6C
100
AcDbEntity
100
AcDbLine
  8
0
 62
256
370
-1
  6
BYLAYER
 10
-20.85604198162158
 20
-13.78497416975596
 30
0.0
 11
-88.31465869499867
 21
-81.243590883133081
 31
0.0
  0
ARC
  5
6D
100
AcDbEntity
  8
0
 62
256
370
-1
  6
BYLAYER
100
AcDbCircle
 10
-0.0000000000000213
 20
-0.0000000000000053
 30
0.0
 40
120.0
100
AcDbArc
 50
182.38801546326883
 51
222.61198453673117
  0
ARC
  5
6E
100
AcDbEntity
  8
0
 62
256
370
-1
  6
BYLAYER
100
AcDbCircle
 10
-0.0000000000000213
 20
-0.0000000000000053
 30
0.0
 40
120.0
100
AcDbArc
 50
227.38801546326869
 51
267.61198453673126
  0
LINE
  5
6F
100
AcDbEntity
100
AcDbLine
  8
0
 62
256
370
-1
  6
BYLAYER
 10
-81.243590883133308
 20
-88.314658694998457
 30
0.0
 11
-13.784974169756062
 21
-20.856041981621491
 31
0.0
  0
DIMENSION
  5
70
100
AcDbEntity
  8
0
 62
256
370
-1
  6
BYLAYER
100
AcDbDimension
 10
126.23279936974789
 20
149.75656512605039
 30
0.0
 11
0.0000000000000001
 21
151.63156512605039
 31
0.0
 70
0
 71
8
 72
2
 41
1.0
 42
0.0
  1

  3
Standard
100
AcDbAlignedDimension
 13
-130.0
 23
-0.0000000000000053
 33
0.0
 14
130.0
 24
-0.0000000000000053
 34
0.0
 50
0.0
100
AcDbRotatedDimension
1001
ACAD
1000
DSTYLE
1002
{
1070
144
1040
1
1002
}
  0
DIMENSION
  5
71
100
AcDbEntity
  8
0
 62
256
370
-1
  6
BYLAYER
100
AcDbDimension
 10
-119.73812763394808
 20
-8.7805647533499069
 30
0.0
 11
-124.81191047073216
 21
-7.1155263978892149
 31
0.0
 70
1
 71
8
 72
2
 41
1.0
 42
0.0
  1

  3
Standard
100
AcDbAlignedDimension
 13
-119.895788082818
 23
-5.0000000000000053
 33
0.0
 14
-129.88710375638618
 24
-5.4166666666666838
 34
0.0
1001
ACAD
1000
DSTYLE
1002
{
1070
144
1040
1
1002
}
  0
DIMENSION
  5
72
100
AcDbEntity
  8
0
 62
256
370
-1
  6
BYLAYER
100
AcDbDimension
 10
-72.195342755324901
 20
4.9999999999999947
 30
0.0
 11
-74.070342755324901
 21
-0.0000000000000051
 31
0.0
 70
1
 71
8
 72
2
 41
1.0
 42
0.0
  1

  3
Standard
100
AcDbAlignedDimension
 13
-72.195342755324901
 23
4.9999999999999947
 33
0.0
 14
-72.195342755324901
 24
-5.0000000000000053
 34
0.0
1001
ACAD
1000
DSTYLE
1002
{
1070
144
1040
1
1002
}
  0
CIRCLE
  5
73
100
AcDbEntity
100
AcDbCircle
  8
0
 62
256
370
-1
  6
BYLAYER
 10
-0.0000000000000426
 20
-0.0000000000000107
 30
0.0
 40
3.5
  0
DIMENSION
  5
74
100
AcDbEntity
  8
0
 62
256
370
-1
  6
BYLAYER
100
AcDbDimension
 10
-3.5000000000000422
 20
5.6234845359190562
 30
0.0
 11
-0.0000000000000421
 21
7.4984845359190562
 31
0.0
 70
1
 71
8
 72
2
 41
1.0
 42
0.0
  1

  3
Standard
100
AcDbAlignedDimension
 13
-3.5000000000000426
 23
-0.0000000000000107
 33
0.0
 14
3.4999999999999574
 24
-0.0000000000000107
 34
0.0
1001
ACAD
1000
DSTYLE
1002
{
1070
144
1040
1
1002
}
  0
DIMENSION
  5
75
100
AcDbEntity
  8
0
 62
256
370
-1
  6
BYLAYER
100
AcDbDimension
 10
-27.046407580903654
 20
7.4997958971132679
 30
0.0
 11
-2.9265101530718738
 21
14.33691320420065
 31
0.0
 70
1
 71
8
 72
2
 41
1.0
 42
0.0
  1

  3
Standard
100
AcDbAlignedDimension
 13
-24.494897427831802
 23
-5.0000000000000053
 33
0.0
 14
24.494897427831759
 24
4.9999999999999947
 34
0.0
1001
ACAD
1000
DSTYLE
1002
{
1070
144
1040
1
1002
}
  0
ENDSEC
  0
SECTION
  2
OBJECTS
  0
DICTIONARY
  5
C
100
AcDbDictionary
280
0
281
1
  3
ACAD_GROUP
350
D
  3
ACAD_LAYOUT
350
1A
  3
ACAD_MLINESTYLE
350
17
  3
ACAD_PLOTSETTINGS
350
19
  3
ACAD_PLOTSTYLENAME
350
E
  3
AcDbVariableDictionary
350
76
  3
QCAD_OBJECTS
350
77
  0
DICTIONARY
  5
D
100
AcDbDictionary
280
0
281
1
  0
ACDBDICTIONARYWDFLT
  5
E
100
AcDbDictionary
281
1
  3
Normal
350
F
100
AcDbDictionaryWithDefault
340
F
  0
ACDBPLACEHOLDER
  5
F
  0
DICTIONARY
  5
17
100
AcDbDictionary
280
0
281
1
  3
Standard
350
18
  0
MLINESTYLE
  5
18
100
AcDbMlineStyle
  2
STANDARD
 70
0
  3

 62
256
 51
90.0
 52
90.0
 71
2
 49
0.5
 62
256
  6
BYLAYER
 49
-0.5
 62
256
  6
BYLAYER
  0
DICTIONARY
  5
19
100
AcDbDictionary
280
0
281
1
  0
DICTIONARY
  5
1A
100
AcDbDictionary
281
1
  3
Layout1
350
1E
  3
Layout2
350
26
  3
Model
350
22
  0
LAYOUT
  5
1E
100
AcDbPlotSettings
  1

  2
none_device
  4

  6

 40
0.0
 41
0.0
 42
0.0
 43
0.0
 44
0.0
 45
0.0
 46
0.0
 47
0.0
 48
0.0
 49
0.0
140
0.0
141
0.0
142
1.0
143
1.0
 70
688
 72
0
 73
0
 74
5
  7

 75
16
147
1.0
148
0.0
149
0.0
100
AcDbLayout
  1
Layout1
 70
1
 71
1
 10
0.0
 20
0.0
 11
420.0
 21
297.0
 12
0.0
 22
0.0
 32
0.0
 14
100000000000000000000.0
 24
100000000000000000000.0
 34
100000000000000000000.0
 15
-100000000000000000000.0
 25
-100000000000000000000.0
 35
-100000000000000000000.0
146
0.0
 13
0.0
 23
0.0
 33
0.0
 16
1.0
 26
0.0
 36
0.0
 17
0.0
 27
1.0
 37
0.0
 76
0
330
1B
  0
LAYOUT
  5
22
100
AcDbPlotSettings
  1

  2
none_device
  4

  6

 40
0.0
 41
0.0
 42
0.0
 43
0.0
 44
0.0
 45
0.0
 46
0.0
 47
0.0
 48
0.0
 49
0.0
140
0.0
141
0.0
142
1.0
143
1.0
 70
1712
 72
0
 73
0
 74
0
  7

 75
0
147
1.0
148
0.0
149
0.0
100
AcDbLayout
  1
Model
 70
1
 71
0
 10
0.0
 20
0.0
 11
12.0
 21
9.0
 12
0.0
 22
0.0
 32
0.0
 14
0.0
 24
0.0
 34
0.0
 15
0.0
 25
0.0
 35
0.0
146
0.0
 13
0.0
 23
0.0
 33
0.0
 16
1.0
 26
0.0
 36
0.0
 17
0.0
 27
1.0
 37
0.0
 76
0
330
1F
  0
LAYOUT
  5
26
100
AcDbPlotSettings
  1

  2
none_device
  4

  6

 40
0.0
 41
0.0
 42
0.0
 43
0.0
 44
0.0
 45
0.0
 46
0.0
 47
0.0
 48
0.0
 49
0.0
140
0.0
141
0.0
142
1.0
143
1.0
 70
688
 72
0
 73
0
 74
5
  7

 75
16
147
1.0
148
0.0
149
0.0
100
AcDbLayout
  1
Layout2
 70
1
 71
2
 10
0.0
 20
0.0
 11
12.0
 21
9.0
 12
0.0
 22
0.0
 32
0.0
 14
0.0
 24
0.0
 34
0.0
 15
0.0
 25
0.0
 35
0.0
146
0.0
 13
0.0
 23
0.0
 33
0.0
 16
1.0
 26
0.0
 36
0.0
 17
0.0
 27
1.0
 37
0.0
 76
0
330
23
  0
DICTIONARY
  5
76
100
AcDbDictionary
281
1
  3
DIMASSOC
350
79
  3
HIDETEXT
350
78
  0
DICTIONARYVAR
  5
78
100
DictionaryVariables
280
0
  1
2
  0
DICTIONARYVAR
  5
79
100
DictionaryVariables
280
0
  1
1
  0
DICTIONARY
  5
77
100
AcDbDictionary
281
1
  3
Grid/DisplayGrid00
350
7A
  3
Grid/DisplayGrid01
350
7B
  3
Grid/DisplayGrid02
350
7C
  3
Grid/DisplayGrid03
350
7D
  3
Grid/GridSpacingX00
350
7E
  3
Grid/GridSpacingX01
350
7F
  3
Grid/GridSpacingX02
350
80
  3
Grid/GridSpacingX03
350
81
  3
Grid/GridSpacingY00
350
82
  3
Grid/GridSpacingY01
350
83
  3
Grid/GridSpacingY02
350
84
  3
Grid/GridSpacingY03
350
85
  3
Grid/IsometricGrid00
350
86
  3
Grid/IsometricGrid01
350
87
  3
Grid/IsometricGrid02
350
88
  3
Grid/IsometricGrid03
350
89
  3
Grid/IsometricProjection00
350
8A
  3
Grid/IsometricProjection01
350
8B
  3
Grid/IsometricProjection02
350
8C
  3
Grid/IsometricProjection03
350
8D
  3
Grid/MetaGridSpacingX00
350
8E
  3
Grid/MetaGridSpacingX01
350
8F
  3
Grid/MetaGridSpacingX02
350
90
  3
Grid/MetaGridSpacingX03
350
91
  3
Grid/MetaGridSpacingY00
350
92
  3
Grid/MetaGridSpacingY01
350
93
  3
Grid/MetaGridSpacingY02
350
94
  3
Grid/MetaGridSpacingY03
350
95
  3
MultiPageSettings/Columns
350
96
  3
MultiPageSettings/GlueMarginsBottom
350
97
  3
MultiPageSettings/GlueMarginsLeft
350
98
  3
MultiPageSettings/GlueMarginsRight
350
99
  3
MultiPageSettings/GlueMarginsTop
350
9A
  3
MultiPageSettings/PrintCropMarks
350
9B
  3
MultiPageSettings/Rows
350
9C
  3
PageSettings/OffsetX
350
9D
  3
PageSettings/OffsetY
350
9E
  3
PageSettings/PageOrientation
350
9F
  3
PageSettings/PaperHeight
350
A0
  3
PageSettings/PaperWidth
350
A1
  3
PageSettings/Scale
350
A2
  3
PageSettings/ShowPaperBorders
350
A3
  3
UnitSettings/PaperUnit
350
A4
  0
XRECORD
  5
7A
330
77
100
AcDbXrecord
280
1
290
1
  0
XRECORD
  5
7B
330
77
100
AcDbXrecord
280
1
290
1
  0
XRECORD
  5
7C
330
77
100
AcDbXrecord
280
1
290
1
  0
XRECORD
  5
7D
330
77
100
AcDbXrecord
280
1
290
1
  0
XRECORD
  5
7E
330
77
100
AcDbXrecord
280
1
1000
auto
  0
XRECORD
  5
7F
330
77
100
AcDbXrecord
280
1
1000
auto
  0
XRECORD
  5
80
330
77
100
AcDbXrecord
280
1
1000
auto
  0
XRECORD
  5
81
330
77
100
AcDbXrecord
280
1
1000
auto
  0
XRECORD
  5
82
330
77
100
AcDbXrecord
280
1
1000
auto
  0
XRECORD
  5
83
330
77
100
AcDbXrecord
280
1
1000
auto
  0
XRECORD
  5
84
330
77
100
AcDbXrecord
280
1
1000
auto
  0
XRECORD
  5
85
330
77
100
AcDbXrecord
280
1
1000
auto
  0
XRECORD
  5
86
330
77
100
AcDbXrecord
280
1
290
0
  0
XRECORD
  5
87
330
77
100
AcDbXrecord
280
1
290
0
  0
XRECORD
  5
88
330
77
100
AcDbXrecord
280
1
290
0
  0
XRECORD
  5
89
330
77
100
AcDbXrecord
280
1
290
0
  0
XRECORD
  5
8A
330
77
100
AcDbXrecord
280
1
 90
0
  0
XRECORD
  5
8B
330
77
100
AcDbXrecord
280
1
 90
0
  0
XRECORD
  5
8C
330
77
100
AcDbXrecord
280
1
 90
0
  0
XRECORD
  5
8D
330
77
100
AcDbXrecord
280
1
 90
0
  0
XRECORD
  5
8E
330
77
100
AcDbXrecord
280
1
1000
auto
  0
XRECORD
  5
8F
330
77
100
AcDbXrecord
280
1
1000
auto
  0
XRECORD
  5
90
330
77
100
AcDbXrecord
280
1
1000
auto
  0
XRECORD
  5
91
330
77
100
AcDbXrecord
280
1
1000
auto
  0
XRECORD
  5
92
330
77
100
AcDbXrecord
280
1
1000
auto
  0
XRECORD
  5
93
330
77
100
AcDbXrecord
280
1
1000
auto
  0
XRECORD
  5
94
330
77
100
AcDbXrecord
280
1
1000
auto
  0
XRECORD
  5
95
330
77
100
AcDbXrecord
280
1
1000
auto
  0
XRECORD
  5
96
330
77
100
AcDbXrecord
280
1
 90
1
  0
XRECORD
  5
97
330
77
100
AcDbXrecord
280
1
 40
10.0
  0
XRECORD
  5
98
330
77
100
AcDbXrecord
280
1
 40
10.0
  0
XRECORD
  5
99
330
77
100
AcDbXrecord
280
1
 40
10.0
  0
XRECORD
  5
9A
330
77
100
AcDbXrecord
280
1
 40
10.0
  0
XRECORD
  5
9B
330
77
100
AcDbXrecord
280
1
290
0
  0
XRECORD
  5
9C
330
77
100
AcDbXrecord
280
1
 90
1
  0
XRECORD
  5
9D
330
77
100
AcDbXrecord
280
1
 40
-210.00000000000003
  0
XRECORD
  5
9E
330
77
100
AcDbXrecord
280
1
 40
-285.55915590011779
  0
XRECORD
  5
9F
330
77
100
AcDbXrecord
280
1
1000
Portrait
  0
XRECORD
  5
A0
330
77
100
AcDbXrecord
280
1
 40
297.0
  0
XRECORD
  5
A1
330
77
100
AcDbXrecord
280
1
 40
210.0
  0
XRECORD
  5
A2
330
77
100
AcDbXrecord
280
1
1000
1:2
  0
XRECORD
  5
A3
330
77
100
AcDbXrecord
280
1
290
1
  0
XRECORD
  5
A4
330
77
100
AcDbXrecord
280
1
 90
4
  0
ENDSEC
  0
EOF
